<svg xmlns="http://www.w3.org/2000/svg" viewBox="0 0 64 64">
    <rect width="64" height="64" rx="14" fill="#0b0f19"/>
    <circle cx="48" cy="16" r="6" fill="#3b82f6"/>
    <path d="M21 43c3.1 2.8 7 4.2 11.5 4.2 5.4 0 8.5-2.1 8.5-5.4 0-3.1-2.2-4.5-8.8-5.9-8.4-1.8-12.5-5.1-12.5-11 0-6.4 5.4-10.6 13.4-10.6 5.1 0 9.3 1.5 12.7 4.4l-4.1 5.4c-2.7-2.2-5.6-3.3-8.8-3.3-4 0-6.3 1.6-6.3 4.2 0 2.5 2 3.7 8 5 9 1.9 13.3 5.5 13.3 11.7 0 7.2-5.8 11.7-15.3 11.7-6.4 0-11.8-1.9-15.8-5.5z" fill="#ffffff"/>
</svg>
